/vscmnt/brussel_pixiu_data/_data_brussel/112/vsc11236/PredSimResults/SUBJ11mtu3D/weighted-LRposFixed/trackIG/worker_03.mot
version=1
nRows=6
nColumns=50
inDegrees=yes
endheader
                time	         pelvis_tilt	         pelvis_list	     pelvis_rotation	           pelvis_tx	           pelvis_ty	           pelvis_tz	       hip_flexion_r	     hip_adduction_r	      hip_rotation_r	        knee_angle_r	       ankle_angle_r	         mtp_angle_r	       hip_flexion_l	     hip_adduction_l	      hip_rotation_l	        knee_angle_l	       ankle_angle_l	         mtp_angle_l	    lumbar_extension	      lumbar_bending	     lumbar_rotation	 ercspn_r/activation	 intobl_r/activation	 extobl_r/activation	    abd_r/activation	    add_r/activation	hamstrings_r/activation	bifemsh_r/activation	glut_max_r/activation	iliopsoas_r/activation	rect_fem_r/activation	  vasti_r/activation	gastroc_r/activation	 soleus_r/activation	tib_ant_r/activation	 ercspn_l/activation	 intobl_l/activation	 extobl_l/activation	    abd_l/activation	    add_l/activation	hamstrings_l/activation	bifemsh_l/activation	glut_max_l/activation	iliopsoas_l/activation	rect_fem_l/activation	  vasti_l/activation	gastroc_l/activation	 soleus_l/activation	tib_ant_l/activation	
          0.70031558	         -6.26037308	          4.95710630	         -8.23312523	          0.73533135	          0.93854252	          0.01696194	        -12.30100215	         -5.45934864	          4.11274062	         -7.95937808	         12.14915252	         28.29048191	         31.61797497	          1.44158811	         -4.60322564	         -5.03575079	          5.31726764	          0.23192877	         -3.81466899	         -3.34666205	          2.20052231	          0.05771650	          0.01000000	          0.01000001	          0.04369129	          0.03321475	          0.02407985	          0.11962292	          0.04529572	          0.44994468	          0.01000008	          0.01000001	          0.33548692	          0.25587160	          0.00999999	          0.08113811	          0.11383696	          0.02419269	          0.01000001	          0.13964358	          0.04307889	          0.18530994	          0.05144598	          0.08281987	          0.01000017	          0.01000001	          0.02314515	          0.01000000	          0.28969863	
          0.71432189	         -6.37875962	          4.79092479	         -8.25063570	          0.75363119	          0.93649534	          0.01622094	        -12.47610584	         -5.36193332	          3.73428504	         -9.45786212	         11.53863852	         30.35024153	         31.58572204	          1.45605428	         -4.63433055	         -6.63847722	          4.91927756	          0.18672657	         -3.49616014	         -3.62354986	          2.38124523	          0.07255052	          0.01000000	          0.01000001	          0.03542235	          0.04380227	          0.02546174	          0.09698329	          0.03672313	          0.43983688	          0.01000003	          0.01757444	          0.30507555	          0.23832565	          0.00999999	          0.06578206	          0.10978150	          0.01961402	          0.02592915	          0.12234584	          0.05524243	          0.15023851	          0.08287891	          0.06714552	          0.01000001	          0.01000000	          0.01876476	          0.01233438	          0.32101351	
          0.72832820	         -6.47472508	          4.61946369	         -8.21507614	          0.77215616	          0.93492974	          0.01538411	        -12.42906760	         -5.24637220	          3.33016617	        -11.39208634	         10.75752396	         32.50265724	         31.35279711	          1.46207999	         -4.69216795	         -7.94347800	          4.34990327	          0.17494641	         -3.18211616	         -3.90623499	          2.53453116	          0.10041976	          0.00999999	          0.01000000	          0.02871837	          0.04181964	          0.02399915	          0.07862840	          0.02977297	          0.42456247	          0.01000024	          0.01521403	          0.24861393	          0.20047796	          0.00999999	          0.07967575	          0.08900444	          0.01590191	          0.09909478	          0.14631879	          0.05560908	          0.12180464	          0.09719729	          0.05443767	          0.01000000	          0.00999999	          0.01521337	          0.01000000	          0.36128760	
          0.74233451	         -6.54733267	          4.44296056	         -8.13067642	          0.79061187	          0.93405647	          0.01445358	        -12.06690939	         -5.11155731	          2.90771426	        -13.88342705	          9.78525561	         34.66968502	         31.01902796	          1.47471275	         -4.78014367	         -9.09781470	          3.74461299	          0.13346056	         -2.89907072	         -4.19509458	          2.65699972	          0.13128097	          0.00999999	          0.01000001	          0.02328318	          0.05910860	          0.02154372	          0.06374733	          0.02413819	          0.39493022	          0.01000005	          0.01233465	          0.20156167	          0.16253584	          0.00999999	          0.08249552	          0.07215961	          0.01289234	          0.13704848	          0.16977023	          0.04976995	          0.09875210	          0.12139760	          0.04413489	          0.01000001	          0.01950814	          0.01233415	          0.01000125	          0.38964944	
          0.75634082	         -6.59447559	          4.26484657	         -8.00127243	          0.80881505	          0.93393650	          0.01345191	        -11.34059043	         -4.96232398	          2.45998618	        -16.98740098	          8.60476750	         36.71872666	         30.64026337	          1.49464988	         -4.88938266	        -10.23750880	          3.34865788	          0.10274780	         -2.65878403	         -4.49411656	          2.74485125	          0.14089281	          0.01000000	          0.01000000	          0.01887665	          0.07778291	          0.02873631	          0.05168263	          0.01956983	          0.34645930	          0.01000001	          0.01000022	          0.16341444	          0.13177457	          0.00999999	          0.08213143	          0.05850280	          0.01045236	          0.14749556	          0.15510259	          0.05131253	          0.08006245	          0.11793520	          0.03578200	          0.01000001	          0.06920312	          0.01000001	          0.01000001	          0.40754825	
          0.77034713	         -6.61677862	          4.07648993	         -7.83044874	          0.82666616	          0.93454929	          0.01241494	        -10.25434501	         -4.79653794	          1.97853043	        -20.66455634	          7.22340635	         38.37812596	         30.18192693	          1.51512385	         -4.99249121	        -11.26927964	          3.07874378	          0.07692988	         -2.46653728	         -4.79486316	          2.79640204	          0.14980425	          0.01000000	          0.01000001	          0.01530408	          0.09371388	          0.02329776	          0.04921629	          0.01586608	          0.28720836	          0.01000000	          0.00999999	          0.13248690	          0.10683514	          0.01000000	          0.07232620	          0.04743066	          0.01000000	          0.14812901	          0.12574813	          0.05080920	          0.06490997	          0.11530472	          0.02900995	          0.01000000	          0.13084469	          0.01000003	          0.01000002	          0.41078853	
